<svg xmlns="http://www.w3.org/2000/svg" width="24" height="24" viewBox="0 0 24 24">
  <path d="M12.583 19.834l-.01.007a1.107 1.107 0 01-.014.008l-.086.045A1.102 1.102 0 0112 20l-.06-.002a1.113 1.113 0 01-.413-.104l-.086-.045a1.107 1.107 0 01-.024-.015l-.071-.048a1.112 1.112 0 01-.13-.11l-6.892-6.893a1.108 1.108 0 111.567-1.566l5.001 5V5.107a1.108 1.108 0 112.216 0l-.001 11.111 5.002-5.001a1.108 1.108 0 111.567 1.566l-6.893 6.893-.017.016c-.02.02-.04.038-.062.055l.08-.071a1.118 1.118 0 01-.13.11l-.071.048z"/>
</svg>
