<svg xmlns="http://www.w3.org/2000/svg" width="24" height="24" viewBox="0 0 24 24">
  <path d="M13.375.621l7.91 3.936A3.074 3.074 0 0123 7.31v9.378a3.073 3.073 0 01-1.712 2.751l-7.91 3.936a3.103 3.103 0 01-2.765 0L2.7 19.438a3.07 3.07 0 01-1.7-2.76V7.309c0-1.166.665-2.232 1.712-2.75L10.625.62a3.103 3.103 0 012.75 0zM3.224 7.88v8.805a.86.86 0 00.474.774l7.189 3.577v-9.343L3.224 7.88zm17.551 0l-7.663 3.813v9.338l7.183-3.573a.86.86 0 00.48-.77V7.88zm-9.157-5.277L4.603 6.092 12 9.772l7.395-3.68-7.01-3.489a.868.868 0 00-.767 0z"/>
</svg>
