<svg xmlns="http://www.w3.org/2000/svg" width="24" height="24" viewBox="0 0 24 24">
  <path d="M20.802 3.316a1.11 1.11 0 011.572 0c.435.435.435 1.14 0 1.575l-9.882 9.899a1.11 1.11 0 01-1.572 0l-2.965-2.97a1.115 1.115 0 010-1.575 1.11 1.11 0 011.572 0l2.179 2.183 9.096-9.112zm-1.314 8.707a1.113 1.113 0 112.224 0v6.929a3.09 3.09 0 01-3.088 3.093H4.788A3.09 3.09 0 011.7 18.952V5.093A3.09 3.09 0 014.788 2h10.87a1.113 1.113 0 010 2.227H4.789a.865.865 0 00-.864.866v13.859c0 .478.387.866.864.866h13.836a.865.865 0 00.864-.866v-6.93z"/>
</svg>
