<svg xmlns="http://www.w3.org/2000/svg" width="24" height="24" viewBox="0 0 24 24">
  <path d="M14.466 1c1.217 0 2.238.842 2.515 1.977h.937A3.086 3.086 0 0121 6.068V19.91c0 1.707-1.38 3.09-3.082 3.09H6.082A3.086 3.086 0 013 19.91V6.067c0-1.706 1.38-3.09 3.082-3.09h.937A2.591 2.591 0 019.534 1h4.932zM7.019 5.203h-.937a.864.864 0 00-.863.864V19.91c0 .478.387.865.863.865h11.836a.864.864 0 00.863-.865V6.067a.864.864 0 00-.863-.865h-.937a2.591 2.591 0 01-2.515 1.978H9.534A2.591 2.591 0 017.02 5.203zm7.447-1.978H9.534a.37.37 0 00-.37.37v.99c0 .204.166.37.37.37h4.932a.37.37 0 00.37-.37v-.99a.37.37 0 00-.37-.37z"/>
</svg>
