<svg xmlns="http://www.w3.org/2000/svg" width="24" height="24" viewBox="0 0 24 24">
  <path d="M8.39 17.957c.282-.094.588-.072.853.062a7.167 7.167 0 003.251.77 7.285 7.285 0 006.514-4.032 7.165 7.165 0 00.77-3.249l.002-.435c-.204-3.697-3.156-6.649-6.791-6.851h-.497a7.17 7.17 0 00-3.253.772 7.284 7.284 0 00-4.028 6.514 7.165 7.165 0 00.77 3.25c.134.264.156.57.062.851L4.87 19.13l3.52-1.173zm12.604-2.202a9.504 9.504 0 01-12.324 4.45l-5.206 1.736a1.111 1.111 0 01-1.405-1.405l1.735-5.206A9.503 9.503 0 018.241 3.008 9.384 9.384 0 0112.495 2l.555.002c4.827.266 8.682 4.12 8.95 9.01v.492a9.382 9.382 0 01-1.006 4.25z"/>
</svg>
