<svg xmlns="http://www.w3.org/2000/svg" width="24" height="24" viewBox="0 0 24 24">
  <path d="M12 10.146c-1.024 0-1.854.83-1.854 1.854v6.921c0 1.024.83 1.854 1.854 1.854h6.921c1.024 0 1.854-.83 1.854-1.854V12c0-1.024-.83-1.854-1.854-1.854H12zm0-2.225h6.921A4.079 4.079 0 0123 12v6.921A4.079 4.079 0 0118.921 23H12a4.079 4.079 0 01-4.079-4.079V12A4.079 4.079 0 0112 7.921zm-6.921 5.933a1.112 1.112 0 110 2.225h-.99A3.09 3.09 0 011 12.989v-8.9A3.09 3.09 0 014.09 1h8.899a3.09 3.09 0 013.09 3.09v.989a1.112 1.112 0 11-2.225 0v-.99a.865.865 0 00-.865-.864h-8.9a.865.865 0 00-.864.865v8.899c0 .478.387.865.865.865h.989z"/>
</svg>
