<svg xmlns="http://www.w3.org/2000/svg" width="24" height="24" viewBox="0 0 24 24">
  <path d="M12 1c5.412 0 9.824 1.437 9.995 3.928l.005.15v13.843C22 21.51 17.542 23 12 23S2 21.51 2 18.921V5.08C2 2.495 6.48 1 12 1zm0 15.079c-3.148 0-5.947-.481-7.777-1.371v4.213c0 .699 3.456 1.854 7.777 1.854s7.778-1.155 7.778-1.854v-4.213c-1.831.89-4.63 1.37-7.778 1.37zm0-6.922c-3.14 0-5.943-.483-7.777-1.376V12c0 .699 3.456 1.854 7.777 1.854s7.778-1.155 7.778-1.854V7.78C17.942 8.675 15.14 9.158 12 9.158zm0-2.224c4.298 0 7.778-1.162 7.778-1.854 0-.693-3.48-1.854-7.778-1.854s-7.778 1.16-7.778 1.854c0 .692 3.48 1.854 7.778 1.854z"/>
</svg>
