<svg xmlns="http://www.w3.org/2000/svg" width="24" height="24" viewBox="0 0 24 24">
  <path d="M12 0c.61 0 1.105.498 1.105 1.113v2.845h3.807c.61 0 1.106.5 1.106 1.114a1.11 1.11 0 01-1.106 1.114l-3.807-.001v4.701h1.351c2.51 0 4.544 2.05 4.544 4.578 0 2.528-2.034 4.577-4.544 4.577h-1.351v2.846A1.11 1.11 0 0112 24a1.11 1.11 0 01-1.105-1.113l-.001-2.846H6.105A1.11 1.11 0 015 18.928a1.11 1.11 0 011.105-1.114h4.789v-4.701h-1.35C7.034 13.113 5 11.064 5 8.536S7.034 3.96 9.544 3.96l1.35-.001V1.113A1.11 1.11 0 0112 0zm1.105 17.814h1.351a2.342 2.342 0 002.333-2.35 2.342 2.342 0 00-2.333-2.35l-1.351-.001v4.701zm-2.211-6.928V6.185h-1.35A2.342 2.342 0 007.21 8.537a2.342 2.342 0 002.333 2.35h1.35z"/>
</svg>
