<svg xmlns="http://www.w3.org/2000/svg" width="24" height="24" viewBox="0 0 24 24">
  <path d="M21.778 14.037c.675 0 1.222.547 1.222 1.222v4.346A3.395 3.395 0 0119.605 23H4.395A3.395 3.395 0 011 19.605v-4.346a1.222 1.222 0 112.444 0v4.346c0 .525.426.95.951.95h15.21a.95.95 0 00.95-.95v-4.346c0-.675.548-1.222 1.223-1.222zM12 1c.675 0 1.222.547 1.222 1.222v10.086l3.346-3.345a1.222 1.222 0 011.728 1.728l-5.432 5.433c-.029.029-.06.056-.091.082l.091-.082a1.233 1.233 0 01-.707.347 1.16 1.16 0 01-.157.01h-.042a1.23 1.23 0 01-.042-.002l.084.002a1.234 1.234 0 01-.735-.245 1.07 1.07 0 01-.13-.112L5.705 10.69a1.222 1.222 0 011.728-1.728l3.345 3.344V2.222C10.778 1.547 11.326 1 12 1z"/>
</svg>
