<svg xmlns="http://www.w3.org/2000/svg" width="24" height="24" viewBox="0 0 24 24">
  <path d="M18.798 14.63a1.112 1.112 0 112.224 0v5.28a3.09 3.09 0 01-3.09 3.09H4.09A3.09 3.09 0 011 19.91V6.067a3.09 3.09 0 013.09-3.09h5.28a1.112 1.112 0 110 2.225H4.09a.865.865 0 00-.865.865V19.91c0 .478.387.865.865.865h13.843a.865.865 0 00.865-.865v-5.28zm-.079-13.304l3.955 3.955a1.112 1.112 0 010 1.573l-9.887 9.888a1.112 1.112 0 01-.787.325H8.045a1.112 1.112 0 01-1.112-1.112V12c0-.295.117-.578.325-.787l9.888-9.887a1.112 1.112 0 011.573 0zM9.157 12.46v2.382h2.382l8.776-8.776-2.382-2.382-8.776 8.776z"/>
</svg>
