<svg xmlns="http://www.w3.org/2000/svg" width="24" height="24" viewBox="0 0 24 24">
  <path d="M20.935 3.064a7.043 7.043 0 01.001 9.963l-6.664 6.681c-.209.21-.492.327-.788.327l-7.944-.001-2.64 2.64a1.113 1.113 0 01-1.574-1.572l2.64-2.641v-7.94c0-.294.118-.577.326-.786l6.675-6.671a7.051 7.051 0 019.968 0zM14.747 16.08H9.495l-1.73 1.729h5.257l1.725-1.729zM12.54 4.636l-6.349 6.346v5.255l8.979-8.973a1.113 1.113 0 011.573 1.573l-5.024 5.02h5.226l.02.001 2.396-2.402a4.82 4.82 0 00.001-6.82 4.825 4.825 0 00-6.822 0z"/>
</svg>
