<svg xmlns="http://www.w3.org/2000/svg" width="24" height="24" viewBox="0 0 24 24">
  <path d="M16.45 1a3.584 3.584 0 013.317 4.944h2.12c.615 0 1.113.498 1.113 1.112V12c0 .614-.498 1.112-1.112 1.112h-.866v8.776c0 .614-.498 1.112-1.112 1.112H12l-.017-.001L4.09 23a1.112 1.112 0 01-1.112-1.112l-.001-8.776h-.865A1.112 1.112 0 011 12V7.056c0-.614.498-1.112 1.112-1.112h2.121A3.584 3.584 0 017.55 1C9.513 1 10.978 2.148 12 3.964l-.048.084C12.978 2.184 14.458 1 16.45 1zm-5.563 12.112H5.202v7.663h5.685v-7.663zm7.91 0h-5.685v7.663h5.686l-.001-7.663zm-7.91-4.944H3.225v2.72l7.662-.001V8.168zm9.888 0h-7.663v2.719h7.663V8.17zM7.551 3.226a1.36 1.36 0 000 2.719h2.937a7.778 7.778 0 00-.39-.824c-.674-1.225-1.511-1.895-2.547-1.895zm8.898 0c-1.036 0-1.873.67-2.547 1.895-.145.264-.275.54-.39.824h2.937a1.36 1.36 0 000-2.72z"/>
</svg>
