<svg xmlns="http://www.w3.org/2000/svg" width="24" height="24" viewBox="0 0 24 24">
  <path d="M3 18.75a2.25 2.25 0 110 4.5 2.25 2.25 0 010-4.5zm9 0a2.25 2.25 0 110 4.5 2.25 2.25 0 010-4.5zm9 0a2.25 2.25 0 110 4.5 2.25 2.25 0 010-4.5zm-18-9a2.25 2.25 0 110 4.5 2.25 2.25 0 010-4.5zm9 0a2.25 2.25 0 110 4.5 2.25 2.25 0 010-4.5zm9 0a2.25 2.25 0 110 4.5 2.25 2.25 0 010-4.5zm-18-9a2.25 2.25 0 110 4.5 2.25 2.25 0 010-4.5zm9 0a2.25 2.25 0 110 4.5 2.25 2.25 0 010-4.5zm9 0a2.25 2.25 0 110 4.5 2.25 2.25 0 010-4.5z"/>
</svg>
