<svg xmlns="http://www.w3.org/2000/svg" width="24" height="24" viewBox="0 0 24 24">
  <path d="M20.9 12.9A1.1 1.1 0 0122 14v6.9a1.1 1.1 0 01-1.1 1.1H14a1.1 1.1 0 01-1.1-1.1V14a1.1 1.1 0 011.1-1.1zm-10.9 0a1.1 1.1 0 011.1 1.1v6.9A1.1 1.1 0 0110 22H3.1A1.1 1.1 0 012 20.9V14a1.1 1.1 0 011.1-1.1zm9.8 2.2h-4.7v4.7h4.7v-4.7zm-10.9 0H4.2v4.7h4.7v-4.7zM10 2a1.1 1.1 0 011.1 1.1V10a1.1 1.1 0 01-1.1 1.1H3.1A1.1 1.1 0 012 10V3.1A1.1 1.1 0 013.1 2zm10.9 0A1.1 1.1 0 0122 3.1V10a1.1 1.1 0 01-1.1 1.1H14a1.1 1.1 0 01-1.1-1.1V3.1A1.1 1.1 0 0114 2zm-12 2.2H4.2v4.7h4.7V4.2zm10.9 0h-4.7v4.7h4.7V4.2z"/>
</svg>
