<svg xmlns="http://www.w3.org/2000/svg" width="24" height="24" viewBox="0 0 24 24">
  <path d="M12 23C5.925 23 1 18.075 1 12S5.925 1 12 1s11 4.925 11 11-4.925 11-11 11zm0-2.225a8.775 8.775 0 100-17.55 8.775 8.775 0 000 17.55zM10.172 9.403a1.112 1.112 0 01-2.099-.738A4.079 4.079 0 0116 10.022c0 1.316-.774 2.348-1.979 3.15a7.607 7.607 0 01-1.748.872 1.112 1.112 0 01-.704-2.11 5.513 5.513 0 001.218-.612c.65-.433.988-.885.988-1.301a1.854 1.854 0 00-3.603-.618zM12 17.933a1.483 1.483 0 100-2.967 1.483 1.483 0 000 2.967z"/>
</svg>
