<svg xmlns="http://www.w3.org/2000/svg" width="24" height="24" viewBox="0 0 24 24">
  <path d="M9.528 1h4.944A8.528 8.528 0 0123 9.528v4.944A8.528 8.528 0 0114.472 23H9.528A8.528 8.528 0 011 14.472V9.528A8.528 8.528 0 019.528 1zm0 2.225a6.303 6.303 0 00-6.303 6.303v4.944a6.303 6.303 0 006.303 6.303h4.944a6.303 6.303 0 006.303-6.303V9.528a6.303 6.303 0 00-6.303-6.303H9.528zm7.527 7.989A5.067 5.067 0 117.03 12.7a5.067 5.067 0 0110.025-1.487zM12.46 9.145a2.843 2.843 0 10-.834 5.624 2.843 2.843 0 00.834-5.624z"/>
</svg>
