<svg xmlns="http://www.w3.org/2000/svg" width="24" height="24" viewBox="0 0 24 24">
  <path d="M4.949 15.988c.116 0 .174.057.174.17v1.11c0 .113-.058.17-.174.17H3.473c-.049 0-.073.023-.073.07v4.572c0 .113-.058.17-.174.17H1.85c-.116 0-.174-.057-.174-.17v-4.571c0-.048-.024-.072-.073-.072H.174c-.116 0-.174-.056-.174-.17v-1.109c0-.113.058-.17.174-.17H4.95zm5.675 2.988c-.024.012-.036.027-.036.045s.012.032.036.044c.257.15.448.339.573.568.125.23.188.506.188.828 0 .614-.22 1.066-.66 1.355-.44.29-1.011.434-1.714.434H6.583c-.116 0-.174-.057-.174-.17v-5.922c0-.113.058-.17.174-.17h2.346c.782 0 1.37.136 1.764.407.394.272.591.726.591 1.364 0 .555-.22.96-.66 1.217zm-2.419-1.548c-.049 0-.073.024-.073.072v.84c0 .049.024.072.073.072h.724c.446 0 .669-.164.669-.492 0-.328-.223-.492-.669-.492h-.724zm.806 3.382c.434 0 .651-.176.651-.528 0-.334-.214-.5-.641-.5h-.816c-.049 0-.073.023-.073.07v.886c0 .048.024.072.073.072h.806zm3.972 1.44c-.117 0-.175-.057-.175-.17v-5.922c0-.113.058-.17.175-.17h1.374c.116 0 .174.057.174.17v4.58c0 .048.025.072.074.072h2.767c.116 0 .174.056.174.17v1.1c0 .113-.058.17-.174.17h-4.39z"/>
  <path d="M3.111 14.5A1.111 1.111 0 012 13.389V5.967C2 3.777 3.824 2 6.074 2h11.852C20.176 2 22 3.776 22 5.967v13.034c0 .614-.497 1.112-1.111 1.112a1.11 1.11 0 01-1.111-1.11V8.498l-4.895 4.766a1.132 1.132 0 01-1.57 0l-3.083-3.001-3.327 3.06a1.132 1.132 0 01-1.57-.023 1.062 1.062 0 01.022-1.53l4.112-3.803a1.133 1.133 0 011.56.012l3.07 2.99 5.618-5.47a1.845 1.845 0 00-1.79-1.334H6.076c-1.024 0-1.853.807-1.853 1.803v7.422c0 .614-.497 1.111-1.11 1.111z"/>
</svg>
