<svg xmlns="http://www.w3.org/2000/svg" width="24" height="24" viewBox="0 0 24 24">
  <path d="M3.429 17.5c.789 0 1.428.627 1.428 1.4 0 .773-.64 1.4-1.428 1.4-.79 0-1.429-.627-1.429-1.4 0-.773.64-1.4 1.429-1.4zm17.471.3a1.1 1.1 0 01.12 2.194L20.9 20H7.416a1.1 1.1 0 01-.12-2.194l.12-.006H20.9zM3.429 12.75c.789 0 1.428.627 1.428 1.4 0 .773-.64 1.4-1.428 1.4-.79 0-1.429-.627-1.429-1.4 0-.773.64-1.4 1.429-1.4zm17.471.3a1.1 1.1 0 01.12 2.194l-.12.006H7.416a1.1 1.1 0 01-.12-2.194l.12-.006H20.9zM3.429 8.25c.789 0 1.428.627 1.428 1.4 0 .773-.64 1.4-1.428 1.4-.79 0-1.429-.627-1.429-1.4 0-.773.64-1.4 1.429-1.4zm17.471.3a1.1 1.1 0 01.12 2.194l-.12.006H7.416a1.1 1.1 0 01-.12-2.194l.12-.006H20.9zM3.429 3.5c.789 0 1.428.627 1.428 1.4 0 .773-.64 1.4-1.428 1.4C2.639 6.3 2 5.673 2 4.9c0-.773.64-1.4 1.429-1.4zm17.471.3a1.1 1.1 0 01.12 2.194L20.9 6H7.416a1.1 1.1 0 01-.12-2.194l.12-.006H20.9z"/>
</svg>
