<svg xmlns="http://www.w3.org/2000/svg" width="24" height="24" viewBox="0 0 24 24">
  <path d="M10.888 2.112a1.112 1.112 0 012.224 0v3.955a1.112 1.112 0 01-2.224 0V2.112zm0 15.82a1.112 1.112 0 012.224 0v3.956a1.112 1.112 0 11-2.224 0v-3.955zM4.223 5.797a1.112 1.112 0 011.573-1.573L8.594 7.02a1.112 1.112 0 11-1.573 1.573L4.223 5.796zm11.183 11.183a1.112 1.112 0 111.573-1.573l2.798 2.798a1.112 1.112 0 01-1.573 1.573l-2.798-2.798zM2.112 13.112a1.112 1.112 0 010-2.224h3.955a1.112 1.112 0 010 2.224H2.112zm15.82 0a1.112 1.112 0 010-2.224h3.956a1.112 1.112 0 110 2.224h-3.955zM5.797 19.777a1.112 1.112 0 01-1.573-1.573l2.798-2.798a1.112 1.112 0 111.573 1.573l-2.798 2.798zM16.979 8.594a1.112 1.112 0 11-1.573-1.573l2.798-2.798a1.112 1.112 0 011.573 1.573L16.98 8.594z"/>
</svg>
