<svg xmlns="http://www.w3.org/2000/svg" width="24" height="24" viewBox="0 0 24 24">
  <path d="M12 1a6.053 6.053 0 016.05 6.056l-.001 2.845.08.003A4.077 4.077 0 0122 13.978v4.943A4.076 4.076 0 0117.926 23H6.074A4.076 4.076 0 012 18.921v-4.943A4.077 4.077 0 015.95 9.9V7.056A6.053 6.053 0 0112 1zm5.926 11.124H6.074c-1.023 0-1.852.83-1.852 1.854v4.943c0 1.024.83 1.854 1.852 1.854h11.852c1.023 0 1.852-.83 1.852-1.854v-4.943c0-1.024-.83-1.854-1.852-1.854zM12 14.966a1.482 1.482 0 11-.002 2.965A1.482 1.482 0 0112 14.966zm0-11.741a3.83 3.83 0 00-3.827 3.831l-.001 2.842h7.655V7.056A3.83 3.83 0 0012 3.225z"/>
</svg>
