<svg xmlns="http://www.w3.org/2000/svg" width="24" height="24" viewBox="0 0 24 24">
  <path d="M8.74 1a1.222 1.222 0 010 2.444H4.396a.95.95 0 00-.95.951v15.21c0 .525.425.95.95.95h4.346a1.222 1.222 0 110 2.445H4.395A3.395 3.395 0 011 19.605V4.395A3.395 3.395 0 014.395 1h4.346zm8.47 4.704l5.432 5.432a1.232 1.232 0 01.354.765A1.265 1.265 0 0123 12v.022c0 .025-.002.05-.004.077L23 12a1.234 1.234 0 01-.237.723 1.22 1.22 0 01-.121.141l-5.432 5.432a1.222 1.222 0 11-1.729-1.728l3.346-3.346H8.741a1.222 1.222 0 110-2.444l10.085-.001-3.345-3.345a1.222 1.222 0 111.729-1.728z"/>
</svg>
