<svg xmlns="http://www.w3.org/2000/svg" width="24" height="24" viewBox="0 0 24 24">
  <path d="M20.889 14.84c.614 0 1.111.497 1.111 1.11v2.964A3.086 3.086 0 0118.914 22H15.95a1.111 1.111 0 010-2.222h2.963a.864.864 0 00.864-.864V15.95c0-.614.497-1.111 1.11-1.111zm-17.778 0c.614 0 1.111.497 1.111 1.11v2.964c0 .477.387.864.864.864H8.05a1.111 1.111 0 010 2.222H5.086A3.086 3.086 0 012 18.914V15.95c0-.614.497-1.111 1.111-1.111zM8.05 2a1.111 1.111 0 010 2.222H5.086a.864.864 0 00-.864.864V8.05A1.111 1.111 0 012 8.05V5.086A3.086 3.086 0 015.086 2H8.05zm10.865 0A3.086 3.086 0 0122 5.086V8.05a1.111 1.111 0 01-2.222 0V5.086a.864.864 0 00-.864-.864H15.95a1.111 1.111 0 010-2.222h2.963z"/>
</svg>
