<svg xmlns="http://www.w3.org/2000/svg" width="24" height="24" viewBox="0 0 24 24">
  <path d="M4.066 20.33c.413.413 1.079.416 1.488.007l3.741-3.742.02 4.065a1.065 1.065 0 001.057 1.057 1.04 1.04 0 001.047-1.047l-.036-6.703-.018-.118-.05-.163-.049-.109-.093-.147-.097-.11-.075-.07-.116-.082-.098-.055-.1-.042-.165-.045-.125-.016-6.671-.034a1.04 1.04 0 00-1.048 1.047 1.065 1.065 0 001.058 1.058l4.062.02-3.74 3.74a1.052 1.052 0 00.008 1.489zm8.91-16.604l.031 6.605.005.098.018.118.049.163.05.109.093.147.097.11.075.07.115.082.099.055.1.042.165.045.191.018 6.605.032a1.04 1.04 0 001.047-1.047 1.065 1.065 0 00-1.057-1.058l-4.065-.02 3.742-3.74a1.052 1.052 0 00-.007-1.489 1.052 1.052 0 00-1.488-.007L15.1 7.8l-.02-4.063a1.065 1.065 0 00-1.057-1.057 1.04 1.04 0 00-1.048 1.047z"/>
</svg>
