<svg xmlns="http://www.w3.org/2000/svg" width="24" height="24" viewBox="0 0 24 24">
  <path d="M11.878 22.993l-.117-.019a1.104 1.104 0 01-.548-.3l-2.966-2.966a1.112 1.112 0 011.573-1.573l1.067 1.066v-6.089H4.798l1.067 1.068a1.112 1.112 0 11-1.573 1.573l-2.966-2.966-.02-.02a1.119 1.119 0 01-.048-.055l.068.075a1.123 1.123 0 01-.203-.279 1.115 1.115 0 01.203-1.295l2.966-2.966A1.112 1.112 0 015.865 9.82l-1.067 1.067h6.089V4.798L9.82 5.865a1.112 1.112 0 01-1.573-1.573l2.966-2.966.02-.02.055-.048-.075.068a1.123 1.123 0 01.431-.268 1.11 1.11 0 011.143.268l2.966 2.966a1.112 1.112 0 01-1.573 1.573l-1.068-1.067v6.089h6.089L18.135 9.82a1.112 1.112 0 011.573-1.573l2.966 2.966.02.02.048.055-.068-.075a1.123 1.123 0 01.203.279 1.115 1.115 0 01-.203 1.295l-2.966 2.966a1.112 1.112 0 01-1.573-1.573l1.066-1.068h-6.089v6.089l1.068-1.066a1.112 1.112 0 111.573 1.573l-2.966 2.966-.02.02a1.119 1.119 0 01-.055.048l.075-.068a1.123 1.123 0 01-.431.268 1.11 1.11 0 01-.478.051z"/>
</svg>
