<svg xmlns="http://www.w3.org/2000/svg" width="24" height="24" viewBox="0 0 24 24">
  <path d="M11.573 1.55a10.761 10.761 0 015.738 1.651 1.09 1.09 0 01.34 1.514 1.114 1.114 0 01-1.529.336 8.49 8.49 0 00-4.55-1.308c-4.687 0-8.488 3.764-8.488 8.407 0 4.643 3.8 8.407 8.489 8.407a8.502 8.502 0 004.532-1.298 1.114 1.114 0 011.528.34 1.09 1.09 0 01-.343 1.513 10.732 10.732 0 01-5.717 1.638C5.662 22.75.87 18.004.87 12.15c0-5.854 4.792-10.6 10.703-10.6zm8.163 5.926l3.937 3.899a1.09 1.09 0 010 1.55l-3.937 3.9a1.115 1.115 0 01-1.565 0 1.09 1.09 0 010-1.552l2.045-2.027H9.112c-.611 0-1.107-.49-1.107-1.096 0-.606.496-1.097 1.107-1.097h11.105l-2.046-2.026a1.09 1.09 0 010-1.551 1.115 1.115 0 011.565 0z"/>
</svg>
