<svg xmlns="http://www.w3.org/2000/svg" width="24" height="24" viewBox="0 0 24 24">
  <path d="M13.375 1.316l7.91 3.868A3.017 3.017 0 0123 7.89v9.218a3.015 3.015 0 01-1.712 2.704l-7.91 3.868a3.151 3.151 0 01-2.765 0L2.7 19.81A3.013 3.013 0 011 17.098V7.89c0-1.147.665-2.195 1.712-2.704l3.776-1.849c.053-.03.107-.056.163-.077l3.974-1.944a3.152 3.152 0 012.75 0zM3.224 8.45v8.655a.843.843 0 00.474.76l7.189 3.517v-9.184L3.224 8.45zm17.551 0l-3.307 1.618a1.126 1.126 0 01-.04.02l-4.316 2.11v9.179l7.183-3.513a.844.844 0 00.48-.757V8.45zM7.06 5.492L4.604 6.693 12 10.31l2.456-1.201L7.06 5.492zm4.558-2.229l-2.07 1.012 7.396 3.617 2.451-1.199-7.01-3.429a.881.881 0 00-.767 0z"/>
</svg>
