<svg xmlns="http://www.w3.org/2000/svg" width="24" height="24" viewBox="0 0 24 24">
  <path d="M17.538 1c.923 0 1.454 1.02.907 1.744l-1.328 1.76v6.749l2.88 2.55c.76.673.271 1.904-.758 1.904h-6.03v7.087a1.206 1.206 0 11-2.411 0l-.001-7.087h-6.03c-1.028 0-1.517-1.231-.757-1.905l2.88-2.55V4.505L5.559 2.745C5.01 2.022 5.541 1 6.464 1h11.074zm-2.223 2.19H8.692l.23.304c.143.189.22.416.22.65v7.593c0 .309-.134.603-.368.81l-1.096.97h8.651l-1.095-.97a1.082 1.082 0 01-.368-.81V4.144c0-.233.076-.46.218-.648l.23-.306z"/>
</svg>
