<svg xmlns="http://www.w3.org/2000/svg" width="24" height="24" viewBox="0 0 24 24">
  <path d="M17.926 2A4.074 4.074 0 0122 6.074v11.852A4.074 4.074 0 0117.926 22H6.074A4.074 4.074 0 012 17.926V6.074A4.074 4.074 0 016.074 2h11.852zm0 2.222H6.074c-1.023 0-1.852.83-1.852 1.852v11.852c0 1.023.83 1.852 1.852 1.852h11.852c1.023 0 1.852-.83 1.852-1.852V6.074c0-1.023-.83-1.852-1.852-1.852zM12 6.938c.614 0 1.111.498 1.111 1.111v2.839h2.84a1.111 1.111 0 010 2.223h-2.84v2.84a1.111 1.111 0 01-2.222 0l-.001-2.84H8.049a1.111 1.111 0 110-2.222l2.839-.001V8.049c0-.613.498-1.11 1.112-1.11z"/>
</svg>
