<svg xmlns="http://www.w3.org/2000/svg" width="24" height="24" viewBox="0 0 24 24">
  <path d="M7.071 2a4.073 4.073 0 013.556 6.06l2.366 2.368 7.111-7.115a1.11 1.11 0 111.57 1.571L10.628 15.94A4.073 4.073 0 017.071 22 4.073 4.073 0 013 17.926a4.073 4.073 0 016.056-3.558L11.423 12 9.056 9.632A4.073 4.073 0 013 6.074 4.073 4.073 0 017.071 2zm9.145 11.663l5.458 5.452a1.112 1.112 0 01-1.569 1.573l-5.458-5.452a1.112 1.112 0 011.569-1.573zM7.07 16.074a1.851 1.851 0 101.318.551.03.03 0 01-.01-.007l-.008-.01a1.844 1.844 0 00-1.3-.534zm0-11.852a1.851 1.851 0 101.308 3.16l.01-.007a1.851 1.851 0 00-1.318-3.152z"/>
</svg>
