<svg xmlns="http://www.w3.org/2000/svg" width="24" height="24" viewBox="0 0 24 24">
  <path d="M9.03 23a2.103 2.103 0 110-4.205 2.103 2.103 0 010 4.205zm10.887 0a2.103 2.103 0 110-4.205 2.103 2.103 0 010 4.205zM4.16 2.226H1.113a1.113 1.113 0 110-2.226h3.96c.53 0 .987.374 1.09.894l.812 4.052h15.911c.699 0 1.225.636 1.094 1.322l-1.585 8.308a3.087 3.087 0 01-3.072 2.489H9.725a3.092 3.092 0 01-3.092-2.488L4.98 6.323a1.107 1.107 0 01-.018-.09l-.803-4.007zm3.262 4.946l1.395 6.97a.872.872 0 00.888.697h9.64a.864.864 0 00.865-.689l1.331-6.978H7.42z"/>
</svg>
