<svg xmlns="http://www.w3.org/2000/svg" width="24" height="24" viewBox="0 0 24 24">
  <path d="M12 4.62L9.942 8.782a1.112 1.112 0 01-.836.607l-4.603.672 3.33 3.238c.262.256.382.623.32.984l-.786 4.573 4.115-2.16c.324-.17.712-.17 1.036 0l4.115 2.16-.786-4.573a1.11 1.11 0 01.32-.984l3.33-3.238-4.603-.672a1.112 1.112 0 01-.836-.607L12 4.62zM8.206 7.276l2.797-5.657a1.113 1.113 0 011.994 0l2.797 5.657 6.253.913a1.11 1.11 0 01.616 1.894l-4.525 4.4 1.068 6.216c.156.908-.798 1.6-1.614 1.17L12 18.934 6.408 21.87c-.816.428-1.77-.263-1.614-1.17l1.068-6.217-4.525-4.4a1.11 1.11 0 01.616-1.894l6.253-.913z"/>
</svg>
