<svg xmlns="http://www.w3.org/2000/svg" width="24" height="24" viewBox="0 0 24 24">
  <path d="M22.887 20.775a1.113 1.113 0 110 2.225H1.113a1.113 1.113 0 110-2.225h21.774zM12 11.876a6.059 6.059 0 016.062 6.057 1.113 1.113 0 01-2.227 0A3.833 3.833 0 0012 14.1a3.833 3.833 0 00-3.835 3.832 1.113 1.113 0 01-2.227 0A6.059 6.059 0 0112 11.876zM3.093 16.82a1.113 1.113 0 110 2.225h-1.98a1.113 1.113 0 110-2.225h1.98zm19.794 0a1.113 1.113 0 110 2.225h-1.98a1.113 1.113 0 110-2.225h1.98zm-17.8-7.367l1.406 1.404a1.112 1.112 0 010 1.574 1.114 1.114 0 01-1.575 0l-1.405-1.404a1.112 1.112 0 010-1.574 1.114 1.114 0 011.575 0zm15.4 0a1.112 1.112 0 010 1.574l-1.405 1.404a1.114 1.114 0 01-1.575 0 1.112 1.112 0 010-1.574l1.405-1.404a1.114 1.114 0 011.575 0zM12 1a1.113 1.113 0 01.787.326l3.96 3.955a1.112 1.112 0 010 1.573 1.114 1.114 0 01-1.576 0l-2.058-2.056v4.236a1.113 1.113 0 01-2.226 0l-.001-4.237-2.057 2.057a1.114 1.114 0 01-1.575 0 1.112 1.112 0 010-1.573l3.959-3.955.024-.024a1.12 1.12 0 01.042-.038l-.066.062a1.123 1.123 0 01.434-.269c.11-.037.23-.057.353-.057z"/>
</svg>
