<svg xmlns="http://www.w3.org/2000/svg" width="24" height="24" viewBox="0 0 24 24">
  <path d="M13.975 1a3.088 3.088 0 013.087 3.09l-.001.865h3.828a1.112 1.112 0 010 2.225l-.865-.001V19.91A3.088 3.088 0 0116.939 23H7.062a3.088 3.088 0 01-3.087-3.09V7.18h-.864a1.112 1.112 0 010-2.224h3.827V4.09A3.088 3.088 0 0110.025 1h3.95zm3.827 6.179H6.197V19.91c0 .478.387.865.865.865h9.876a.865.865 0 00.864-.865V7.18zm-3.827-3.954h-3.95a.865.865 0 00-.865.865v.865h5.679V4.09a.865.865 0 00-.864-.865z"/>
</svg>
