<svg xmlns="http://www.w3.org/2000/svg" width="24" height="24" viewBox="0 0 24 24">
  <path d="M17.73 1.326a1.112 1.112 0 010 1.573l-3.045 3.044h4.236A4.079 4.079 0 0123 10.024v8.898A4.079 4.079 0 0118.921 23H5.08A4.079 4.079 0 011 18.921v-8.899a4.079 4.079 0 014.079-4.078l4.235-.001L6.27 2.899a1.112 1.112 0 011.573-1.573L12 5.483l4.157-4.157a1.112 1.112 0 011.573 0zm1.191 6.843H5.08c-1.024 0-1.854.83-1.854 1.853v8.9c0 1.023.83 1.853 1.854 1.853H18.92c1.024 0 1.854-.83 1.854-1.854v-8.899c0-1.023-.83-1.853-1.854-1.853z"/>
</svg>
