<svg xmlns="http://www.w3.org/2000/svg" width="24" height="24" viewBox="0 0 24 24">
  <path d="M20.889 14.037c.614 0 1.111.547 1.111 1.222v4.346C22 21.48 20.618 23 18.914 23H5.086C3.382 23 2 21.48 2 19.605v-4.346c0-.675.497-1.222 1.111-1.222s1.111.547 1.111 1.222v4.346c0 .525.387.95.864.95h13.828c.477 0 .864-.425.864-.95v-4.346c0-.675.497-1.222 1.11-1.222zM12 1h.018c.026 0 .052.002.079.005L12 1a1.021 1.021 0 01.628.213 1.235 1.235 0 01.158.145l4.938 5.432a1.31 1.31 0 010 1.729 1.041 1.041 0 01-1.571 0L13.11 5.173v10.086c0 .675-.497 1.222-1.111 1.222s-1.111-.547-1.111-1.222l-.001-10.087-3.04 3.347a1.041 1.041 0 01-1.572 0 1.31 1.31 0 010-1.729l4.938-5.432.02-.022.048-.046-.068.068a1.163 1.163 0 01.35-.26A1.044 1.044 0 0112 1z"/>
</svg>
