<svg xmlns="http://www.w3.org/2000/svg" width="24" height="24" viewBox="0 0 24 24">
  <path d="M21 20.889a1.11 1.11 0 11-2.22 0v-1.975c0-1.569-1.269-2.84-2.835-2.84h-7.89a2.838 2.838 0 00-2.836 2.84v1.975a1.11 1.11 0 11-2.219 0v-1.975a5.058 5.058 0 015.055-5.062h7.89A5.058 5.058 0 0121 18.914v1.975zm-9-8.766a5.058 5.058 0 01-5.055-5.061A5.058 5.058 0 0112 2a5.058 5.058 0 015.055 5.062A5.058 5.058 0 0112 12.123zm0-2.222a2.838 2.838 0 002.836-2.84c0-1.567-1.27-2.839-2.836-2.839a2.838 2.838 0 00-2.836 2.84c0 1.568 1.27 2.84 2.836 2.84z"/>
</svg>
