<svg xmlns="http://www.w3.org/2000/svg" width="24" height="24" viewBox="0 0 24 24">
  <path d="M12.99 4c2.254 0 4.082 1.818 4.082 4.062v1.785l5.167-3.671c.737-.524 1.761 0 1.761.9v9.847c0 .901-1.024 1.425-1.76.901l-5.168-3.672v1.786c0 2.244-1.828 4.062-4.082 4.062H4.082C1.828 20 0 18.182 0 15.938V8.062C0 5.818 1.828 4 4.082 4h8.908zm0 2.215H4.082a1.85 1.85 0 00-1.855 1.847v7.876c0 1.02.83 1.847 1.855 1.847h8.908a1.85 1.85 0 001.855-1.847V8.062a1.85 1.85 0 00-1.855-1.847zm8.783 3.014L17.874 12l3.9 2.77V9.23z"/>
</svg>
