<svg xmlns="http://www.w3.org/2000/svg" width="24" height="24" viewBox="0 0 24 24">
  <path d="M1.9.326L23.675 22.1a1.113 1.113 0 01-1.575 1.575l-5.349-5.35a3.093 3.093 0 01-2.77 1.717H3.092A3.093 3.093 0 010 16.948V7.052a3.094 3.094 0 012.452-3.027L.326 1.901A1.113 1.113 0 111.901.326zM13.98 3.96a3.093 3.093 0 013.092 3.093v2.831l5.162-3.734A1.113 1.113 0 0124 7.052v9.896a1.113 1.113 0 01-2.227 0V9.231l-4.172 3.018a1.113 1.113 0 01-1.44-.115l-.99-.99a1.113 1.113 0 01-.326-.787V7.052a.866.866 0 00-.866-.866h-3.305a1.113 1.113 0 010-2.227h3.305zM4.61 6.185H3.093a.866.866 0 00-.866.867v9.896c0 .479.388.866.866.866h10.886a.866.866 0 00.866-.866v-.529L4.611 6.185z"/>
</svg>
