<svg xmlns="http://www.w3.org/2000/svg" width="24" height="24" viewBox="0 0 24 24">
  <path d="M11.012 2a9.012 9.012 0 017.11 14.55l3.553 3.553a1.111 1.111 0 11-1.572 1.572l-3.552-3.552A9.012 9.012 0 1111.013 2zm0 2.222a6.79 6.79 0 104.707 11.685 1.037 1.037 0 01.188-.189 6.79 6.79 0 00-4.894-11.496zm0 2.716c.614 0 1.111.498 1.111 1.111v1.852h1.852a1.111 1.111 0 110 2.222h-1.852v1.852a1.111 1.111 0 11-2.222 0v-1.852H8.049a1.111 1.111 0 110-2.222h1.852V8.049c0-.613.498-1.11 1.111-1.11z"/>
</svg>
