<svg xmlns="http://www.w3.org/2000/svg" width="24" height="24" viewBox="0 0 24 24">
  <path d="M17.926 2A4.074 4.074 0 0122 6.074v11.852A4.074 4.074 0 0117.926 22H6.074A4.074 4.074 0 012 17.926V6.074A4.074 4.074 0 016.074 2h11.852zm0 2.222H6.074c-1.023 0-1.852.83-1.852 1.852v11.852c0 1.023.83 1.852 1.852 1.852h11.852c1.023 0 1.852-.83 1.852-1.852V6.074c0-1.023-.83-1.852-1.852-1.852z"/>
  <path d="M12.041 5.4l.02.001a1.091 1.091 0 01.355.08l.014.007c.027.011.053.023.079.037l-.093-.043a1.11 1.11 0 01.533.46c.026.045.049.092.07.142l-.037-.08.022.046.014.034 4.5 11 .04.113a1.1 1.1 0 01-2.076.72l-.948-2.32-.034.003h-5l-.034-.002-.948 2.318a1.1 1.1 0 01-2.076-.72l.04-.112 4.5-11 .009-.021c.01-.025.022-.049.034-.072l-.043.093a1.11 1.11 0 01.476-.541c.04-.023.082-.043.126-.061l-.093.043c.023-.012.047-.024.072-.034l.02-.01A1.121 1.121 0 0112 5.4h.041zM12 9.404L10.365 13.4h3.27L12 9.404z"/>
</svg>
