<svg xmlns="http://www.w3.org/2000/svg" width="24" height="24" viewBox="0 0 24 24">
  <path d="M8.367 3.225L3.225 8.367v7.266l5.142 5.142h7.266l5.142-5.142V8.367l-5.142-5.142H8.367zM7.907 1h8.186c.295 0 .578.117.787.326l5.794 5.794c.209.209.326.492.326.787v8.186c0 .295-.117.578-.326.787l-5.794 5.794a1.112 1.112 0 01-.787.326H7.907c-.295 0-.578-.117-.787-.326L1.326 16.88A1.112 1.112 0 011 16.093V7.907c0-.295.117-.578.326-.787L7.12 1.326c.209-.209.492-.326.787-.326zm2.98 7.045a1.112 1.112 0 012.225 0V12a1.112 1.112 0 01-2.224 0V8.045zM12 17.933a1.483 1.483 0 100-2.967 1.483 1.483 0 000 2.967z"/>
</svg>
