<svg xmlns="http://www.w3.org/2000/svg" width="24" height="24" viewBox="0 0 24 24">
  <path d="M17.033 7.297l6.654 6.864c.417.43.417 1.13 0 1.56l-6.654 6.864c-.417.43-1.094.43-1.512 0a1.128 1.128 0 010-1.56l4.827-4.981h-7.245a1.103 1.103 0 110-2.206l7.246-.001-4.828-4.98a1.128 1.128 0 010-1.56 1.046 1.046 0 011.512 0zM8.48 1.413c.417.43.417 1.13 0 1.56L3.65 7.954h7.247a1.103 1.103 0 010 2.206H3.65l4.829 4.981c.417.431.417 1.13 0 1.56-.418.431-1.095.431-1.512 0L.313 9.838a1.128 1.128 0 010-1.56l6.654-6.864a1.046 1.046 0 011.512 0z"/>
</svg>
