<svg xmlns="http://www.w3.org/2000/svg" width="24" height="24" viewBox="0 0 24 24">
  <path d="M14.851 12.99a1.113 1.113 0 112.227 0v7.917a1.113 1.113 0 11-2.227 0V12.99zm-7.917 0a1.113 1.113 0 112.227 0v7.917a1.113 1.113 0 11-2.227 0V12.99zm3.958 1.979a1.113 1.113 0 112.227 0v7.918a1.113 1.113 0 11-2.227 0v-7.918zm7.053-9.031a6.062 6.062 0 012.425 11.615 1.113 1.113 0 11-.894-2.04 3.835 3.835 0 00-1.532-7.348h-1.247c-.508 0-.951-.344-1.078-.835a6.804 6.804 0 10-10.835 7.017 1.113 1.113 0 01-1.39 1.74A9.031 9.031 0 1117.516 5.937h.429z"/>
</svg>
