<svg xmlns="http://www.w3.org/2000/svg" width="24" height="24" viewBox="0 0 24 24">
  <path d="M6.2 0a1.113 1.113 0 011.104 1.123l-.035 3.9 8.69-.075a3.093 3.093 0 013.093 3.093l-.001 8.783h3.836a1.113 1.113 0 010 2.228l-3.836-.001v3.836a1.113 1.113 0 01-2.226 0l-.001-3.836H8.041a3.095 3.095 0 01-3.093-3.102l.075-8.68-3.9.035a1.113 1.113 0 01-.02-2.227l3.94-.034.034-3.94A1.113 1.113 0 016.2 0zm9.768 7.175L7.25 7.25l-.075 8.709c0 .478.388.866.866.866l8.783-.001V8.041a.864.864 0 00-.856-.866z"/>
</svg>
