<svg xmlns="http://www.w3.org/2000/svg" width="24" height="24" viewBox="0 0 24 24">
  <path d="M11.012 4.963a1.111 1.111 0 010 2.222H5.086a.864.864 0 00-.864.864v10.865c0 .477.387.864.864.864h10.865a.864.864 0 00.864-.864v-5.926a1.111 1.111 0 012.222 0v5.926A3.086 3.086 0 0115.951 22H5.086A3.086 3.086 0 012 18.914V8.049a3.086 3.086 0 013.086-3.086h5.926zm9.999-2.956l.038.004a1.104 1.104 0 01.626.314l.016.018c.02.02.038.04.056.062l-.072-.08a1.122 1.122 0 01.267.43c.038.112.058.232.058.356v5.926a1.111 1.111 0 01-2.222 0l-.001-3.244-8.967 8.968A1.111 1.111 0 119.24 13.19l8.967-8.968h-3.243a1.111 1.111 0 110-2.222h5.926c.04 0 .081.002.122.007z"/>
</svg>
