<svg xmlns="http://www.w3.org/2000/svg" width="24" height="24" viewBox="0 0 24 24">
  <path d="M12.826 1c.398 0 .78.157 1.061.436l6.674 6.616c.281.279.439.657.439 1.05v10.925C21 21.669 19.657 23 18 23H6c-1.657 0-3-1.331-3-2.973V3.973C3 2.331 4.343 1 6 1h6.826zm-.959 2.229H6a.747.747 0 00-.75.744v16.054c0 .41.336.743.75.743h12c.414 0 .75-.332.75-.743l-.001-9.903h-4.256c-1.828 0-2.625-.776-2.625-2.601l-.001-4.294zM12 10.885c.621 0 1.125.5 1.125 1.115v1.858H15c.621 0 1.125.5 1.125 1.115A1.12 1.12 0 0115 16.088h-1.875v1.858A1.12 1.12 0 0112 19.06a1.12 1.12 0 01-1.125-1.115v-1.858H9a1.12 1.12 0 01-1.125-1.115A1.12 1.12 0 019 13.858h1.875V12A1.12 1.12 0 0112 10.885zm2.117-6.068v2.706c0 .205.168.372.376.372l2.727-.001-3.103-3.077z"/>
</svg>
