<svg xmlns="http://www.w3.org/2000/svg" width="24" height="24" viewBox="0 0 24 24">
  <path d="M20.252 2.853a6.6 6.6 0 01-2.933 11.085l-.255.062a6.6 6.6 0 01-5.293-1.083l-3.616 3.615 2.223 2.222a1.1 1.1 0 01-1.46 1.641l-.096-.085L6.6 18.087l-.945.945 2.223 2.222a1.1 1.1 0 01-1.46 1.641l-.096-.085L4.1 20.587 2.878 21.81a1.1 1.1 0 01-1.641-1.46l.085-.096 8.91-8.91a6.602 6.602 0 0110.02-8.491zm-7.696 1.636a4.4 4.4 0 00-.21 5.998l.164.179-.017-.017a4.4 4.4 0 106.222-6.222 4.398 4.398 0 00-6.16.062z"/>
</svg>
