<svg xmlns="http://www.w3.org/2000/svg" width="24" height="24" viewBox="0 0 24 24">
  <path d="M11.503 1.117c.313-.156.681-.156.994 0l9.888 4.944c.82.41.82 1.58 0 1.99l-9.888 4.944a1.112 1.112 0 01-.994 0L1.615 8.05c-.82-.41-.82-1.58 0-1.99l9.888-4.944zM12 3.356l-7.4 3.7 7.4 3.7 7.4-3.7-7.4-3.7zm9.39 12.593a1.112 1.112 0 11.995 1.99l-9.888 4.944a1.112 1.112 0 01-.994 0l-9.888-4.944a1.112 1.112 0 01.995-1.99L12 20.644l9.39-4.695zm0-4.944a1.112 1.112 0 11.995 1.99l-9.888 4.944a1.112 1.112 0 01-.994 0l-9.888-4.944a1.112 1.112 0 01.995-1.99L12 15.7l9.39-4.695z"/>
</svg>
