<svg xmlns="http://www.w3.org/2000/svg" width="24" height="24" viewBox="0 0 24 24">
  <path d="M19.778 7.01v-.936c0-1.023-.83-1.852-1.852-1.852H6.074c-1.023 0-1.852.83-1.852 1.852V14.7l5.245-5.092a1.111 1.111 0 011.56.012l3.07 3.07 5.68-5.68zm0 3.143l-4.895 4.895a1.111 1.111 0 01-1.57 0l-3.083-3.083-6.008 5.832v.129c0 1.023.83 1.852 1.852 1.852h11.852c1.023 0 1.852-.83 1.852-1.852v-7.773zM6.074 2h11.852A4.074 4.074 0 0122 6.074v11.852A4.074 4.074 0 0117.926 22H6.074A4.074 4.074 0 012 17.926V6.074A4.074 4.074 0 016.074 2z"/>
</svg>
