<svg xmlns="http://www.w3.org/2000/svg" width="24" height="24" viewBox="0 0 24 24">
  <path d="M12 0c-.61 0-1.103.49-1.103 1.093v5.522L7.884 3.63a1.11 1.11 0 00-1.56 0 1.086 1.086 0 000 1.545l4.971 4.918.101.074.156.085.118.043.176.04.154.01.106-.005.147-.024.112-.032.105-.042.155-.09.104-.08 4.948-4.897c.43-.427.43-1.119 0-1.545a1.11 1.11 0 00-1.56 0l-3.012 2.983-.002-5.52C13.103.489 12.61 0 12 0zm5.677 18.825l-4.897-4.85-.075-.068-.101-.074-.156-.085-.118-.043-.176-.04-.154-.01-.106.005-.147.024-.112.032-.105.042-.155.09-.155.127-4.897 4.85a1.086 1.086 0 000 1.545 1.11 1.11 0 001.56 0l3.014-2.985v5.522c0 .604.494 1.093 1.103 1.093.61 0 1.103-.49 1.103-1.093l.002-5.52 3.011 2.983a1.11 1.11 0 001.56 0c.432-.426.432-1.118 0-1.545z"/>
</svg>
