<svg xmlns="http://www.w3.org/2000/svg" width="24" height="24" viewBox="0 0 24 24">
  <path d="M13.012 2a9.012 9.012 0 017.11 14.55l3.553 3.553a1.111 1.111 0 11-1.572 1.572l-3.552-3.552A9.012 9.012 0 1113.013 2zm0 2.222a6.79 6.79 0 104.707 11.685 1.037 1.037 0 01.188-.189 6.79 6.79 0 00-4.894-11.496zM10.5 13.4a1.1 1.1 0 01.12 2.194l-.12.006-.949.001a5.772 5.772 0 01-1.777-2.2L10.5 13.4zm-9 0h1.79c.19.773.47 1.51.829 2.2H1.5a1.1 1.1 0 01-.12-2.194l.12-.006zm9-3.5a1.1 1.1 0 01.12 2.194l-.12.006H7.355a5.78 5.78 0 010-2.2H10.5zm-9 0h1.56a10.11 10.11 0 000 2.2H1.5a1.1 1.1 0 01-.12-2.194L1.5 9.9zm2.62-3.501a9.931 9.931 0 00-.83 2.2L1.5 8.6a1.1 1.1 0 01-.12-2.194L1.5 6.4l2.62-.001zm5.431 0l.949.001a1.1 1.1 0 01.12 2.194l-.12.006H7.774A5.772 5.772 0 019.55 6.398z"/>
</svg>
