<svg xmlns="http://www.w3.org/2000/svg" width="24" height="24" viewBox="0 0 24 24">
  <path d="M19.526538,12.6351957 C21.095915,12.6351957 22.3816538,13.8495984 22.4952967,15.3899476 L22.503462,15.6121188 L22.503462,19.520196 C22.503462,21.089573 21.2890584,22.3753105 19.7487093,22.4889532 L19.526538,22.4971185 L4.473462,22.4971185 C2.90408502,22.4971185 1.61834615,21.2827163 1.50470331,19.7423673 L1.496538,19.520196 L1.496538,15.6121188 C1.496538,14.0427418 2.71094155,12.7570038 4.25129073,12.643361 L4.473462,12.6351957 L19.526538,12.6351957 Z M19.526538,14.7121188 L4.473462,14.7121188 C4.02611135,14.7121188 3.65499187,15.0385032 3.58524148,15.4661341 L3.573462,15.6121188 L3.573462,19.520196 C3.573462,19.9675466 3.89984642,20.3386661 4.32747733,20.4084165 L4.473462,20.420196 L19.526538,20.420196 C19.9738886,20.420196 20.3450081,20.0938116 20.4147585,19.6661807 L20.426538,19.520196 L20.426538,15.6121188 C20.426538,15.1150625 20.0235943,14.7121188 19.526538,14.7121188 Z M6.44093044,16.38 C7.09211258,16.38 7.62,16.9105426 7.62,17.565 C7.62,18.1599613 7.1837294,18.6525136 6.6151647,18.7371516 L6.44093044,18.75 C5.77788742,18.75 5.25,18.2194574 5.25,17.565 C5.25,16.9700387 5.6862706,16.4774864 6.2548353,16.3928484 L6.44093044,16.38 Z M19.5198955,1.49447185 C21.0892724,1.49447185 22.3750105,2.70887456 22.4886532,4.24922366 L22.4968185,4.47139492 L22.4968185,8.39447185 C22.4968185,9.96384883 21.2824158,11.2495869 19.7420667,11.3632296 L19.5198955,11.3713949 L4.47868547,11.3713949 C2.90930849,11.3713949 1.62357046,10.1569922 1.5099277,8.61664311 L1.50176239,8.39447185 L1.50176239,4.47139492 C1.50176239,2.90201794 2.7161651,1.61627992 4.25651421,1.50263715 L4.47868547,1.49447185 L19.5198955,1.49447185 Z M19.5198955,3.57139492 L4.47868547,3.57139492 C4.03133482,3.57139492 3.66021534,3.89777934 3.59046495,4.32541025 L3.57868547,4.47139492 L3.57868547,8.39447185 C3.57868547,8.84182249 3.90506988,9.21294198 4.33270079,9.28269237 L4.47868547,9.29447185 L19.5198955,9.29447185 C19.9672461,9.29447185 20.3383656,8.96808743 20.408116,8.54045652 L20.4198955,8.39447185 L20.4198955,4.47139492 C20.4198955,3.97433865 20.0169517,3.57139492 19.5198955,3.57139492 Z M6.44093044,5.25 C7.09211258,5.25 7.62,5.78054257 7.62,6.435 C7.62,7.0299613 7.1837294,7.52251362 6.6151647,7.60715156 L6.44093044,7.62 C5.77788742,7.62 5.25,7.08945743 5.25,6.435 C5.25,5.8400387 5.6862706,5.34748638 6.2548353,5.26284844 L6.44093044,5.25 Z"/>
</svg>
