<svg xmlns="http://www.w3.org/2000/svg" width="24" height="24" viewBox="0 0 24 24">
  <path d="M2.098 7a1.11 1.11 0 011.089.977l.01.154-.002 5.124 2.884-2.787c3.254-3.344 8.265-4.07 12.29-1.78a10.518 10.518 0 014.548 5.246 1.143 1.143 0 01-.596 1.477 1.088 1.088 0 01-1.435-.614 8.278 8.278 0 00-3.58-4.13C14.242 8.925 10.454 9.4 7.87 11.834l-3 2.903 4.746.002a1.11 1.11 0 011.088.977l.01.153a1.12 1.12 0 01-.95 1.12L9.617 17H2.098l-.115-.006-.155-.029-.148-.05-.066-.03a1.072 1.072 0 01-.14-.085l-.087-.07-.09-.086a1.133 1.133 0 01-.13-.176l-.073-.14a1.15 1.15 0 01-.084-.305L1 15.869V8.131C1 7.506 1.492 7 2.098 7z"/>
</svg>
