<svg xmlns="http://www.w3.org/2000/svg" width="24" height="24" viewBox="0 0 24 24">
  <path d="M12 13.852a5.067 5.067 0 015.072 5.062v1.975a1.112 1.112 0 01-2.227 0v-1.975A2.842 2.842 0 0012 16.074H5.072a2.842 2.842 0 00-2.845 2.84v1.975c0 .614-.499 1.111-1.114 1.111A1.112 1.112 0 010 20.889v-1.975a5.067 5.067 0 015.072-5.062H12zm11.674-6.588a1.11 1.11 0 010 1.571l-1.687 1.683 1.687 1.684a1.11 1.11 0 010 1.571 1.115 1.115 0 01-1.575 0l-1.687-1.683-1.687 1.683a1.115 1.115 0 01-1.574 0 1.11 1.11 0 010-1.571l1.686-1.684-1.686-1.683a1.11 1.11 0 010-1.571 1.115 1.115 0 011.574 0l1.687 1.682 1.687-1.682a1.115 1.115 0 011.575 0zM8.536 2a5.067 5.067 0 015.072 5.062 5.067 5.067 0 01-5.072 5.061 5.067 5.067 0 01-5.072-5.061A5.067 5.067 0 018.536 2zm0 2.222a2.842 2.842 0 00-2.845 2.84 2.842 2.842 0 002.845 2.84 2.842 2.842 0 002.845-2.84 2.842 2.842 0 00-2.845-2.84z"/>
</svg>
