<svg xmlns="http://www.w3.org/2000/svg" width="24" height="24" viewBox="0 0 24 24">
  <path d="M13.5 5.25a.75.75 0 00-.75.75v12c0 .414.336.75.75.75H21a.75.75 0 00.75-.75V6a.75.75 0 00-.75-.75h-7.5zM21 3a3 3 0 013 3v12a3 3 0 01-3 3h-7.5c-1.11 0-2.08-.603-2.598-1.5H7.5c-1.11 0-2.08-.603-2.598-1.5H3a3 3 0 01-3-3V9a3 3 0 013-3h1.901A2.999 2.999 0 017.5 4.5h3.401A2.999 2.999 0 0113.5 3H21zM10.5 6.75h-3a.75.75 0 00-.75.75v9c0 .414.336.75.75.75h3V6.75zm-6 9v-7.5H3a.75.75 0 00-.75.75v6c0 .414.336.75.75.75h1.5z"/>
</svg>
