<svg xmlns="http://www.w3.org/2000/svg" width="24" height="24" viewBox="0 0 24 24">
  <path d="M12 18.635c.85 0 1.538.706 1.538 1.577 0 .87-.689 1.576-1.538 1.576-.85 0-1.538-.706-1.538-1.576 0-.871.689-1.577 1.538-1.577zm4.236-3.74c.519.379.64 1.117.272 1.65a1.135 1.135 0 01-1.608.278 4.897 4.897 0 00-5.79 0c-.519.379-1.239.254-1.608-.279a1.202 1.202 0 01.273-1.649 7.157 7.157 0 018.46 0zm3.76-3.687c.49.418.556 1.164.149 1.666a1.134 1.134 0 01-1.625.152 9.932 9.932 0 00-12.958 0c-.49.418-1.217.35-1.625-.152a1.203 1.203 0 01.148-1.666 12.195 12.195 0 0115.912 0zm3.613-3.71c.478.432.524 1.179.103 1.669-.421.49-1.15.537-1.628.105a14.968 14.968 0 00-20.168 0 1.134 1.134 0 01-1.628-.105 1.204 1.204 0 01.103-1.67c6.634-5.996 16.584-5.996 23.218 0z"/>
</svg>
